<?xml version="1.0" standalone="no"?>
<!DOCTYPE svg PUBLIC "-//W3C//DTD SVG 20010904//EN"
 "http://www.w3.org/TR/2001/REC-SVG-20010904/DTD/svg10.dtd">
<svg version="1.0" xmlns="http://www.w3.org/2000/svg"
 width="120.000000pt" height="120.000000pt" viewBox="0 0 120.000000 120.000000"
 preserveAspectRatio="xMidYMid meet">
<metadata>
Created by potrace 1.11, written by Peter Selinger 2001-2013
</metadata>
<g transform="translate(0.000000,120.000000) scale(0.100000,-0.100000)"
fill="#000000" stroke="none">
<path d="M560 1181 c-6 -13 -10 -166 -10 -430 0 -229 -4 -411 -9 -411 -5 0
-24 7 -43 15 -23 9 -60 13 -104 11 -84 -4 -148 -38 -189 -100 -51 -79 -17
-180 79 -232 91 -50 227 -36 296 30 61 57 62 62 62 372 0 156 2 284 5 284 2 0
18 -7 35 -16 50 -26 118 -95 139 -141 36 -79 38 -88 23 -108 -33 -45 -5 -96
43 -79 60 21 132 218 120 329 -6 56 -41 133 -81 177 -13 15 -61 53 -107 86
-105 74 -128 98 -164 164 -16 29 -33 56 -39 60 -20 14 -45 8 -56 -11z"/>
</g>
</svg>
